# xmcd
#
# Track frame offsets:
#	151
#	66458
#	90479
#	126352
#	138135
#	176653
#	198780
#
# Disc length: 3287 seconds
#
# Revision: 0
# Processed by: cddbd v1.4PL0 Copyright (c) Steve Scherf et al.
# Submitted via: dBpowerAMP V4.0
#
DISCID=5e0cd507
DTITLE=Santana - Selection - CD2
DYEAR=2000
DGENRE=Blues
TTITLE0=Santana jam
TTITLE1=Persuasion
TTITLE2=Jam in G minor
TTITLE3=Acapulco sunrise
TTITLE4=Jam in E
TTITLE5=Travelin' blues
TTITLE6=Fried neckbones
EXTD=
EXTT0=
EXTT1=
EXTT2=
EXTT3=
EXTT4=
EXTT5=
EXTT6=
PLAYORDER=
